# This file uses centimeters as units for non-parametric coordinates.

mtllib Walls.mtl
g default
v -12.433024 -5.944498 120.126388
v -9.994910 -5.944498 120.126388
v -12.433024 14.585124 120.126388
v -9.994910 14.585124 120.126388
v -12.433024 14.585124 -24.729697
v -9.994910 14.585124 -24.729697
v -12.433024 -5.944498 -24.729697
v -9.994910 -5.944498 -24.729697
vt 0.036594 0.735275
vt 0.963406 0.735275
vt 0.963406 0.949443
vt 0.036594 0.949443
vt 0.963406 0.735275
vt 0.036594 0.735275
vt 0.036594 0.949443
vt 0.963406 0.949443
vt 0.004734 0.614849
vt 0.003529 0.502565
vt 1.003471 0.491829
vt 1.004677 0.604112
vt 1.004677 0.604112
vt 1.003471 0.491829
vt 0.003529 0.502565
vt 0.004734 0.614849
vt 0.136955 0.459180
vt 0.136955 0.311053
vt 0.887663 0.311053
vt 0.887663 0.459180
vt 0.887663 0.459180
vt 0.887663 0.311053
vt 0.136955 0.311053
vt 0.136955 0.459180
vn 0.000000 0.000000 1.000000
vn 0.000000 0.000000 1.000000
vn 0.000000 0.000000 1.000000
vn 0.000000 0.000000 1.000000
vn 0.000000 1.000000 0.000000
vn 0.000000 1.000000 0.000000
vn 0.000000 1.000000 0.000000
vn 0.000000 1.000000 0.000000
vn 0.000000 0.000000 -1.000000
vn 0.000000 0.000000 -1.000000
vn 0.000000 0.000000 -1.000000
vn 0.000000 0.000000 -1.000000
vn 0.000000 -1.000000 0.000000
vn 0.000000 -1.000000 0.000000
vn 0.000000 -1.000000 0.000000
vn 0.000000 -1.000000 0.000000
vn 1.000000 0.000000 0.000000
vn 1.000000 0.000000 0.000000
vn 1.000000 0.000000 0.000000
vn 1.000000 0.000000 0.000000
vn -1.000000 0.000000 0.000000
vn -1.000000 0.000000 0.000000
vn -1.000000 0.000000 0.000000
vn -1.000000 0.000000 0.000000
s off
g pCube1
usemtl lambert2SG
f 1/17/1 2/18/2 4/19/3 3/20/4
f 3/9/5 4/10/6 6/11/7 5/12/8
f 5/21/9 6/22/10 8/23/11 7/24/12
f 7/13/13 8/14/14 2/15/15 1/16/16
f 2/1/17 8/2/18 6/3/19 4/4/20
f 7/5/21 1/6/22 3/7/23 5/8/24
g default
v 106.516159 -5.944498 -21.796442
v 106.516159 -5.944498 -24.234557
v 106.516159 14.585124 -21.796442
v 106.516159 14.585124 -24.234557
v -10.721530 14.585124 -21.796442
v -10.721530 14.585124 -24.234557
v -10.721530 -5.944498 -21.796442
v -10.721530 -5.944498 -24.234557
vt 0.036594 0.735275
vt 0.963406 0.735275
vt 0.963406 0.949443
vt 0.036594 0.949443
vt 0.963406 0.735275
vt 0.036594 0.735275
vt 0.036594 0.949443
vt 0.963406 0.949443
vt 0.004734 0.614849
vt 0.003529 0.502565
vt 1.003471 0.491829
vt 1.004677 0.604112
vt 1.004677 0.604112
vt 1.003471 0.491829
vt 0.003529 0.502565
vt 0.004734 0.614849
vt 0.136955 0.459180
vt 0.136955 0.311053
vt 0.887663 0.311053
vt 0.887663 0.459180
vt 0.887663 0.459180
vt 0.887663 0.311053
vt 0.136955 0.311053
vt 0.136955 0.459180
vn 1.000000 0.000000 0.000000
vn 1.000000 0.000000 0.000000
vn 1.000000 0.000000 0.000000
vn 1.000000 0.000000 0.000000
vn 0.000000 1.000000 0.000000
vn 0.000000 1.000000 0.000000
vn 0.000000 1.000000 0.000000
vn 0.000000 1.000000 0.000000
vn -1.000000 0.000000 -0.000000
vn -1.000000 0.000000 -0.000000
vn -1.000000 0.000000 -0.000000
vn -1.000000 0.000000 -0.000000
vn 0.000000 -1.000000 0.000000
vn 0.000000 -1.000000 0.000000
vn 0.000000 -1.000000 0.000000
vn 0.000000 -1.000000 0.000000
vn 0.000000 0.000000 -1.000000
vn 0.000000 0.000000 -1.000000
vn 0.000000 0.000000 -1.000000
vn 0.000000 0.000000 -1.000000
vn -0.000000 0.000000 1.000000
vn -0.000000 0.000000 1.000000
vn -0.000000 0.000000 1.000000
vn -0.000000 0.000000 1.000000
s off
g pCube2
usemtl lambert2SG
f 9/41/25 10/42/26 12/43/27 11/44/28
f 11/33/29 12/34/30 14/35/31 13/36/32
f 13/45/33 14/46/34 16/47/35 15/48/36
f 15/37/37 16/38/38 10/39/39 9/40/40
f 10/25/41 16/26/42 14/27/43 12/28/44
f 15/29/45 9/30/46 11/31/47 13/32/48
